#N canvas 255 100 885 501 10;
#X obj 830 459 cnv 15 271 91 empty empty empty 20 12 0 14 -230458 -66577
0;
#X obj 949 440 udpsend;
#X obj 949 464 tgl 15 0 empty empty empty 17 7 0 10 -260097 -262144
-1 1 1;
#X obj 949 418 spigot;
#X msg 1004 423 disconnect;
#X obj 973 464 tgl 15 0 empty empty connect 17 7 0 10 -262144 -1 -1
1 1;
#X obj 1004 374 sel 0 1;
#X msg 1023 399 connect 192.168.1.255 5656;
#X text 1090 379 brdcast;
#X msg 717 622 sendtyped /mipmap/ctl/trails i \$1;
#X obj 838 486 tgl 15 0 empty empty trails 17 7 0 10 -262144 -1 -1
1 1;
#X obj 684 660 s \$0-mess;
#X msg 717 600 sendtyped /mipmap/ctl/mode i \$1;
#X obj 838 464 hradio 15 1 0 4 empty empty modes 62 7 0 10 -262144
-1 -1 3;
#X obj 949 377 packOSC;
#X obj 949 354 speedlim 30;
#X obj 949 331 r \$0-mess;
#X msg 837 563 sendtyped /mipmap/ctl/speed f \$1;
#X obj 896 486 hsl 200 15 -0.3 0.3 0 0 empty empty speeed 72 6 0 10
-262144 -1 -1 9049 1;
#X obj 881 400 loadbang;
#X msg 881 422 0.01;
#X obj 839 514 hradio 10 1 0 15 empty empty pntSz 152 4 0 10 -262144
-1 -1 13;
#X msg 470 571 sendtyped /mipmap/ctl/pointSize i \$1;
#X obj 839 530 hradio 10 1 0 15 empty empty lnSz 154 5 0 10 -262144
-1 -1 8;
#X obj 477 541 + 1;
#X msg 424 594 sendtyped /mipmap/ctl/lineSize i \$1;
#X obj 424 570 + 1;
#X connect 1 0 2 0;
#X connect 2 0 3 1;
#X connect 3 0 1 0;
#X connect 4 0 1 0;
#X connect 5 0 6 0;
#X connect 6 0 4 0;
#X connect 6 1 7 0;
#X connect 7 0 1 0;
#X connect 9 0 11 0;
#X connect 10 0 9 0;
#X connect 12 0 11 0;
#X connect 13 0 12 0;
#X connect 14 0 3 0;
#X connect 15 0 14 0;
#X connect 16 0 15 0;
#X connect 17 0 11 0;
#X connect 18 0 17 0;
#X connect 19 0 20 0;
#X connect 20 0 18 0;
#X connect 21 0 24 0;
#X connect 22 0 11 0;
#X connect 23 0 26 0;
#X connect 24 0 22 0;
#X connect 25 0 11 0;
#X connect 26 0 25 0;
#X coords 0 -1 1 1 279 99 1 827 456;
