#N canvas 768 57 450 306 10;
#X obj 53 142 MouseState;
#X obj 53 120 metro 10;
#X obj 53 95 inlet;
#X obj 67 253 pack f f;
#X obj 67 274 s mouse;
#X obj 67 190 / 1366;
#X obj 67 211 * \$1;
#X obj 112 190 / 768;
#X obj 112 211 * \$2;
#X obj 67 232 int;
#X obj 112 232 int;
#X connect 0 1 5 0;
#X connect 0 2 7 0;
#X connect 1 0 0 0;
#X connect 2 0 1 0;
#X connect 3 0 4 0;
#X connect 5 0 6 0;
#X connect 6 0 9 0;
#X connect 7 0 8 0;
#X connect 8 0 10 0;
#X connect 9 0 3 0;
#X connect 10 0 3 1;
