#N canvas 318 77 975 583 10;
#X obj 643 348 cnv 15 330 72 empty empty empty 20 12 0 14 -102361 -66577
0;
#X obj 863 327 udpsend;
#X obj 863 351 tgl 15 0 empty empty empty 17 7 0 10 -258113 -262144
-1 1 1;
#X obj 863 305 spigot;
#X msg 918 310 disconnect;
#X obj 887 351 tgl 15 0 empty empty connect 17 7 0 10 -262144 -1 -1
1 1;
#X obj 918 133 sel 0 1;
#X obj 811 216 r \$0-mess;
#X msg 151 368 sendtyped /mipmap/map/act i \$1;
#X msg 126 326 1;
#X msg 150 326 2;
#X msg 175 326 3;
#X obj 126 243 r keys;
#X obj 126 266 spigot;
#X msg 359 325 sendtyped /mipmap/map/xy ii \$1 \$2;
#X obj 650 385 hradio 15 1 0 18 empty empty group 276 6 0 10 -262144
-1 -1 3;
#X obj 613 510 pack f f;
#X obj 665 434 int;
#X obj 668 403 hsl 250 15 0 80 0 0 empty empty color 258 6 0 10 -262144
-1 -1 0 1;
#X obj 635 478 int;
#X obj 665 454 t b f;
#X msg 613 551 sendtyped /mipmap/ctl/cols ii \$1 \$2;
#X obj 359 281 r mouse;
#X obj 359 303 spigot;
#X obj 392 227 r edit;
#X obj 392 249 == \$1;
#X obj 301 400 s \$0-mess;
#X obj 970 138 inlet;
#X obj 668 351 tgl 15 0 empty empty editing! 17 7 0 10 -4160 -262144
-1 1 1;
#X msg 416 435 sendtyped /mipmap/ctl/mode i \$1;
#X obj 189 460 key;
#X floatatom 189 482 5 0 0 0 - - -;
#X msg 199 326 4;
#X msg 224 326 5;
#X obj 126 290 sel 32 122 98 119 115 97 100;
#X msg 249 326 6;
#X msg 274 326 7;
#X obj 937 155 any;
#X obj 937 178 prepend connect;
#X obj 938 282 prepend;
#X msg 936 258 5656;
#X obj 932 230 t b a;
#X obj 846 269 packOSC;
#X obj 811 238 speedlim 30;
#X connect 1 0 2 0;
#X connect 2 0 3 1;
#X connect 3 0 1 0;
#X connect 4 0 1 0;
#X connect 5 0 6 0;
#X connect 6 0 4 0;
#X connect 6 1 37 0;
#X connect 7 0 43 0;
#X connect 8 0 26 0;
#X connect 9 0 8 0;
#X connect 10 0 8 0;
#X connect 11 0 8 0;
#X connect 12 0 13 0;
#X connect 13 0 34 0;
#X connect 14 0 26 0;
#X connect 15 0 19 1;
#X connect 16 0 21 0;
#X connect 17 0 20 0;
#X connect 18 0 17 0;
#X connect 19 0 16 0;
#X connect 20 0 19 0;
#X connect 20 1 16 1;
#X connect 21 0 26 0;
#X connect 22 0 23 0;
#X connect 23 0 14 0;
#X connect 24 0 25 0;
#X connect 25 0 23 1;
#X connect 25 0 13 1;
#X connect 25 0 28 0;
#X connect 27 0 37 1;
#X connect 28 0 29 0;
#X connect 29 0 26 0;
#X connect 30 0 31 0;
#X connect 32 0 8 0;
#X connect 33 0 8 0;
#X connect 34 0 9 0;
#X connect 34 1 10 0;
#X connect 34 2 11 0;
#X connect 34 3 32 0;
#X connect 34 4 33 0;
#X connect 34 5 35 0;
#X connect 34 6 36 0;
#X connect 35 0 8 0;
#X connect 36 0 8 0;
#X connect 37 0 38 0;
#X connect 38 0 41 0;
#X connect 39 0 1 0;
#X connect 40 0 39 0;
#X connect 41 0 40 0;
#X connect 41 1 39 1;
#X connect 42 0 3 0;
#X connect 43 0 42 0;
#X coords 0 -1 1 1 335 76 1 641 346;
