#N canvas 466 135 830 553 10;
#X declare -lib mrpeach;
#X obj 5 5 import mrpeach;
#X obj 59 144 MouseState;
#X floatatom 73 179 5 0 0 0 - - -;
#X floatatom 115 179 5 0 0 0 - - -;
#X obj 101 215 pack f f;
#X obj 59 102 tgl 15 0 empty empty empty 17 7 0 10 -262144 -1 -1 0
1;
#X obj 59 122 metro 10;
#X text 1 27 super+alt+m;
#X msg 93 287 sendtyped /mipmap/map/xy ii \$1 \$2;
#X obj 276 157 key;
#X msg 297 257 sendtyped /mipmap/map/act i \$1;
#X msg 276 215 1;
#X msg 195 63 sendtyped /mipmap/ctl/pointSize i 10;
#X obj 412 30 hradio 15 1 0 8 empty empty empty 0 -8 0 10 -262144 -1
-1 0;
#X obj 408 116 pack f f;
#X obj 561 57 int;
#X obj 572 31 hsl 128 15 0 127 0 0 empty empty empty -2 -8 0 10 -262144
-1 -1 0 1;
#X obj 430 84 int;
#X obj 474 69 t b f;
#X obj 408 177 speedlim 50;
#X obj 414 211 s osc;
#X floatatom 322 145 5 0 0 0 - - -;
#X obj 276 179 sel 32 122 98;
#X msg 314 214 2;
#X msg 350 217 3;
#X obj 306 285 s osc;
#X msg 408 157 sendtyped /mipmap/ctl/cols ii \$1 \$2;
#X connect 1 1 2 0;
#X connect 1 2 3 0;
#X connect 2 0 4 0;
#X connect 3 0 4 1;
#X connect 4 0 8 0;
#X connect 5 0 6 0;
#X connect 6 0 1 0;
#X connect 8 0 25 0;
#X connect 9 0 21 0;
#X connect 9 0 22 0;
#X connect 10 0 25 0;
#X connect 11 0 10 0;
#X connect 12 0 20 0;
#X connect 13 0 17 1;
#X connect 14 0 26 0;
#X connect 15 0 18 0;
#X connect 16 0 15 0;
#X connect 17 0 14 0;
#X connect 18 0 17 0;
#X connect 18 1 14 1;
#X connect 19 0 20 0;
#X connect 22 0 11 0;
#X connect 22 1 23 0;
#X connect 22 2 24 0;
#X connect 23 0 10 0;
#X connect 24 0 10 0;
#X connect 26 0 19 0;
